<svg width="271" height="270" viewBox="0 0 271 270" fill="none" xmlns="http://www.w3.org/2000/svg">
<path d="M45.5 220.5H225.5V225H45.5V220.5Z" fill="#DFF3FE"/>
<path d="M135.5 120C160.353 120 180.5 99.8528 180.5 75C180.5 50.1472 160.353 30 135.5 30C110.647 30 90.5 50.1472 90.5 75C90.5 99.8528 110.647 120 135.5 120Z" fill="#56B4FC"/>
<path d="M204.5 81V219H186.5V196.5H84.5V219H66.5V81H204.5ZM210.5 75H60.5V225H90.5V202.5H180.5V225H210.5V75Z" fill="#2047F3"/>
<path d="M135.5 153C127.64 153 121.25 146.61 121.25 138.75C121.25 130.89 127.64 124.5 135.5 124.5C143.36 124.5 149.75 130.89 149.75 138.75C149.75 146.61 143.36 153 135.5 153ZM135.5 130.5C130.947 130.5 127.25 134.197 127.25 138.75C127.25 143.303 130.947 147 135.5 147C140.053 147 143.75 143.303 143.75 138.75C143.75 134.197 140.053 130.5 135.5 130.5Z" fill="#2047F3"/>
<path d="M132.5 105H138.5V127.5H132.5V105ZM101.75 135.75H124.25V141.75H101.75V135.75ZM132.5 150H138.5V172.5H132.5V150ZM146.75 135.75H169.25V141.75H146.75V135.75Z" fill="#2047F3"/>
</svg>
