<svg width="284" height="228" viewBox="0 0 284 228" fill="none" xmlns="http://www.w3.org/2000/svg">
<g clip-path="url(#clip0_14_213)">
<path fill-rule="evenodd" clip-rule="evenodd" d="M223.503 44.5999C221.52 40.429 220.494 35.8674 220.5 31.2489C220.5 14.0579 234.415 0.129883 251.604 0.129883C268.779 0.129883 282.694 14.0589 282.694 31.2479C282.694 48.4229 268.779 62.3509 251.604 62.3509C244.459 62.3626 237.53 59.9037 231.99 55.3909L11.5642 225.588C10.3617 226.521 8.88319 227.028 7.36119 227.029C6.31202 227.03 5.2767 226.789 4.33577 226.325C3.39485 225.861 2.57369 225.186 1.93619 224.353C-0.384811 221.362 0.164189 217.039 3.17219 214.734L223.503 44.5999Z" fill="#2047F3"/>
</g>
<defs>
<clipPath id="clip0_14_213">
<rect width="283" height="227" fill="white" transform="translate(0.5 0.129883)"/>
</clipPath>
</defs>
</svg>
