<svg width="271" height="270" viewBox="0 0 271 270" fill="none" xmlns="http://www.w3.org/2000/svg">
<path d="M75.5 220.5H225.5V225H75.5V220.5Z" fill="#DFF3FE"/>
<path d="M90.5 165C115.353 165 135.5 144.853 135.5 120C135.5 95.1472 115.353 75 90.5 75C65.6472 75 45.5 95.1472 45.5 120C45.5 144.853 65.6472 165 90.5 165Z" fill="#FFD066"/>
<path d="M201.5 36C203.158 36 204.5 37.3425 204.5 39V216C204.5 217.658 203.158 219 201.5 219H99.5C97.8425 219 96.5 217.658 96.5 216V39C96.5 37.3425 97.8425 36 99.5 36H201.5ZM201.5 30H99.5C94.5275 30 90.5 34.0275 90.5 39V216C90.5 220.973 94.5275 225 99.5 225H201.5C206.473 225 210.5 220.973 210.5 216V39C210.5 34.0275 206.473 30 201.5 30Z" fill="#2047F3"/>
<path d="M139.25 49.5H161.75V55.5H139.25V49.5ZM90.5 192H210.5V198H90.5V192Z" fill="#2047F3"/>
</svg>
