<svg width="271" height="270" viewBox="0 0 271 270" fill="none" xmlns="http://www.w3.org/2000/svg">
<path d="M156.5 120C181.353 120 201.5 99.8528 201.5 75C201.5 50.1472 181.353 30 156.5 30C131.647 30 111.5 50.1472 111.5 75C111.5 99.8528 131.647 120 156.5 120Z" fill="#FFD066"/>
<path d="M60.5 220.672H210.5V224.827H60.5V220.672Z" fill="#DFF3FE"/>
<path d="M118.077 224.857C114.875 224.857 111.867 223.612 109.61 221.347L65.915 177.652C61.2425 172.98 61.2425 165.382 65.915 160.71L148.467 78.1575C150.732 75.8925 153.74 74.6475 156.942 74.6475C160.145 74.6475 163.152 75.8925 165.41 78.1575L209.105 121.852C211.37 124.117 212.615 127.125 212.615 130.32C212.615 133.522 211.37 136.53 209.105 138.787L126.552 221.347C125.442 222.464 124.122 223.349 122.667 223.952C121.212 224.554 119.652 224.862 118.077 224.857ZM156.935 80.6625C155.405 80.6625 153.875 81.2475 152.705 82.41L70.16 164.955C67.8275 167.287 67.8275 171.082 70.16 173.415L113.855 217.11C114.409 217.668 115.068 218.11 115.794 218.412C116.52 218.713 117.299 218.867 118.085 218.865C119.682 218.865 121.182 218.242 122.315 217.11L204.867 134.557C207.2 132.225 207.2 128.43 204.867 126.097L161.172 82.4025C160.046 81.2845 158.522 80.6588 156.935 80.6625Z" fill="#1652F0"/>
</svg>
