<svg width="103" height="19" viewBox="0 0 103 19" fill="none" xmlns="http://www.w3.org/2000/svg">
<g clip-path="url(#clip0_14_290)">
<path d="M20.8845 5.15515C17.2154 5.15515 14.3485 7.93395 14.3485 11.6539C14.3485 15.3739 17.1429 18.129 20.8845 18.129C24.626 18.129 27.469 15.3264 27.469 11.6302C27.469 7.95772 24.6746 5.15515 20.8845 5.15515ZM20.9092 15.4481C18.8198 15.4481 17.2887 13.8291 17.2887 11.6549C17.2887 9.45596 18.795 7.8379 20.8845 7.8379C22.9986 7.8379 24.5288 9.48066 24.5288 11.6549C24.5288 13.8291 22.9986 15.4481 20.9092 15.4481ZM28.2703 7.98241H30.0928V17.8884H33.0083V5.39663H28.2703V7.98241ZM7.01122 7.83698C8.54231 7.83698 9.75707 8.77911 10.2182 10.1804H13.3042C12.745 7.18481 10.2668 5.15515 7.03597 5.15515C3.36687 5.15515 0.5 7.93395 0.5 11.6549C0.5 15.3758 3.29445 18.1299 7.03597 18.1299C10.1944 18.1299 12.7211 16.1002 13.2804 13.0799H10.2182C9.78092 14.4812 8.56613 15.4481 7.03507 15.4481C4.92088 15.4481 3.4393 13.8291 3.4393 11.6549C3.44023 9.45596 4.89796 7.83698 7.01122 7.83698ZM83.666 10.4466L81.5281 10.1328C80.5078 9.98831 79.7788 9.64989 79.7788 8.85229C79.7788 7.98241 80.7269 7.54794 82.0141 7.54794C83.4233 7.54794 84.3226 8.15164 84.5168 9.14223H87.3353C87.019 6.6296 85.0753 5.15605 82.0874 5.15605C79.0013 5.15605 76.9606 6.72657 76.9606 8.94924C76.9606 11.075 78.2971 12.308 80.9936 12.6939L83.1315 13.0077C84.1769 13.1522 84.7598 13.5638 84.7598 14.3367C84.7598 15.3273 83.7396 15.738 82.3304 15.738C80.6048 15.738 79.6331 15.0373 79.4873 13.9745H76.6204C76.8882 16.4148 78.8071 18.1299 82.3056 18.1299C85.4888 18.1299 87.602 16.6801 87.602 14.1913C87.602 11.9686 86.0718 10.8088 83.666 10.4466ZM31.5506 0.250621C30.4816 0.250621 29.6796 1.02353 29.6796 2.08638C29.6796 3.14924 30.4807 3.92215 31.5506 3.92215C32.6196 3.92215 33.4219 3.14924 33.4219 2.08638C33.4219 1.02353 32.6196 0.250621 31.5506 0.250621ZM74.3366 9.67365C74.3366 6.96803 72.6847 5.15605 69.1859 5.15605C65.8817 5.15605 64.0352 6.82352 63.6704 9.38461H66.5619C66.7077 8.39402 67.4852 7.57263 69.1374 7.57263C70.62 7.57263 71.3487 8.22479 71.3487 9.02242C71.3487 10.0615 70.0119 10.3267 68.3599 10.496C66.1247 10.7374 63.355 11.5103 63.355 14.4099C63.355 16.6573 65.0317 18.1061 67.7045 18.1061C69.7937 18.1061 71.1057 17.2362 71.7623 15.8587C71.8595 17.0908 72.7828 17.8884 74.0708 17.8884H75.7715V15.3035H74.3375L74.3366 9.67365ZM71.4696 12.8147C71.4696 14.4821 70.0119 15.7142 68.2379 15.7142C67.1444 15.7142 66.2211 15.255 66.2211 14.2891C66.2211 13.0571 67.7034 12.7186 69.0641 12.5741C70.3761 12.4534 71.1049 12.1634 71.4696 11.6073V12.8147ZM55.993 5.15515C54.3647 5.15515 53.0042 5.832 52.0325 6.96713V0.129883H49.117V17.8884H51.9837V16.2456C52.9554 17.4292 54.341 18.1299 55.993 18.1299C59.4914 18.1299 62.1402 15.3758 62.1402 11.6549C62.1402 7.93395 59.443 5.15515 55.993 5.15515ZM55.5557 15.4481C53.4663 15.4481 51.9352 13.8291 51.9352 11.6549C51.9352 9.48066 53.4902 7.8379 55.5794 7.8379C57.6937 7.8379 59.1751 9.45689 59.1751 11.6549C59.1751 13.8291 57.645 15.4481 55.5557 15.4481ZM42.1435 5.15515C40.2485 5.15515 39.009 5.92805 38.2802 7.01559V5.39663H35.3885V17.8875H38.3039V11.0987C38.3039 9.18979 39.5187 7.83698 41.3167 7.83698C42.9934 7.83698 44.0376 9.02059 44.0376 10.7365V17.8884H46.9531V10.5197C46.9542 7.37781 45.3268 5.15515 42.1435 5.15515ZM101.5 11.2442C101.5 7.66868 98.876 5.15605 95.3528 5.15605C91.6113 5.15605 88.8655 7.95864 88.8655 11.6549C88.8655 15.545 91.8055 18.1299 95.4015 18.1299C98.4388 18.1299 100.82 16.3417 101.427 13.8053H98.3892C97.9519 14.9166 96.8829 15.545 95.4492 15.545C93.5779 15.545 92.1686 14.3852 91.8532 12.3555H101.499L101.5 11.2442ZM92.0237 10.2774C92.486 8.53763 93.7978 7.69247 95.3043 7.69247C96.9562 7.69247 98.2197 8.63457 98.5112 10.2774H92.0237Z" fill="white"/>
</g>
<defs>
<clipPath id="clip0_14_290">
<rect width="102" height="18" fill="white" transform="translate(0.5 0.129883)"/>
</clipPath>
</defs>
</svg>
