<svg width="271" height="270" viewBox="0 0 271 270" fill="none" xmlns="http://www.w3.org/2000/svg">
<path fill-rule="evenodd" clip-rule="evenodd" d="M105.5 30H240.5V105H105.5V30Z" fill="#3ACC8A"/>
<path d="M45.5 220.5H165.5V225H45.5V220.5Z" fill="#DFF3FE"/>
<path d="M105.5 81C143.547 81 174.5 111.953 174.5 150C174.5 188.047 143.547 219 105.5 219C67.4525 219 36.5 188.047 36.5 150C36.5 111.953 67.4525 81 105.5 81ZM105.5 75C64.0775 75 30.5 108.578 30.5 150C30.5 191.422 64.0775 225 105.5 225C146.922 225 180.5 191.422 180.5 150C180.5 108.578 146.922 75 105.5 75Z" fill="#2047F3"/>
<path d="M105.5 81C110.735 81 116.585 87.8025 121.145 99.195C126.53 112.672 129.5 130.71 129.5 150C129.5 169.29 126.53 187.327 121.145 200.805C116.585 212.197 110.735 219 105.5 219C100.265 219 94.415 212.197 89.855 200.805C84.47 187.327 81.5 169.29 81.5 150C81.5 130.71 84.47 112.672 89.855 99.195C94.415 87.8025 100.265 81 105.5 81ZM105.5 75C88.9325 75 75.5 108.578 75.5 150C75.5 191.422 88.9325 225 105.5 225C122.068 225 135.5 191.422 135.5 150C135.5 108.578 122.068 75 105.5 75Z" fill="#2047F3"/>
<path d="M30.5 147H180.5V153H30.5V147Z" fill="#2047F3"/>
</svg>
